<?xml version="1.0" encoding="UTF-8" standalone="no"?>
<!DOCTYPE svg PUBLIC "-//W3C//DTD SVG 1.1//EN"
 "http://www.w3.org/Graphics/SVG/1.1/DTD/svg11.dtd">
<!-- Generated by graphviz version 2.43.0 (0)
 -->
<!-- Title: %3 Pages: 1 -->
<svg width="673pt" height="261pt"
 viewBox="0.00 0.00 673.00 261.00" xmlns="http://www.w3.org/2000/svg" xmlns:xlink="http://www.w3.org/1999/xlink">
<g id="graph0" class="graph" transform="scale(1 1) rotate(0) translate(4 257)">
<title>%3</title>
<polygon fill="white" stroke="transparent" points="-4,4 -4,-257 669,-257 669,4 -4,4"/>
<!-- RS232 -->
<g id="node1" class="node">
<title>RS232</title>
<polygon fill="white" stroke="transparent" points="665,-253 549,-253 549,0 665,0 665,-253"/>
<polygon fill="none" stroke="black" points="549,-229.5 549,-252.5 665,-252.5 665,-229.5 549,-229.5"/>
<text text-anchor="start" x="586" y="-237.3" font-family="arial" font-size="14.00">RS232</text>
<polygon fill="none" stroke="black" points="549,-206.5 549,-229.5 576,-229.5 576,-206.5 549,-206.5"/>
<text text-anchor="start" x="553" y="-214.3" font-family="arial" font-size="14.00">DE</text>
<polygon fill="none" stroke="black" points="576,-206.5 576,-229.5 626,-229.5 626,-206.5 576,-206.5"/>
<text text-anchor="start" x="580" y="-214.3" font-family="arial" font-size="14.00">female</text>
<polygon fill="none" stroke="black" points="626,-206.5 626,-229.5 665,-229.5 665,-206.5 626,-206.5"/>
<text text-anchor="start" x="630" y="-214.3" font-family="arial" font-size="14.00">9&#45;pin</text>
<polygon fill="none" stroke="black" points="549,-183.5 549,-206.5 596,-206.5 596,-183.5 549,-183.5"/>
<text text-anchor="start" x="568.5" y="-191.3" font-family="arial" font-size="14.00">1</text>
<polygon fill="none" stroke="black" points="596,-183.5 596,-206.5 665,-206.5 665,-183.5 596,-183.5"/>
<text text-anchor="start" x="615.5" y="-191.3" font-family="arial" font-size="14.00">DCD</text>
<polygon fill="none" stroke="black" points="549,-160.5 549,-183.5 596,-183.5 596,-160.5 549,-160.5"/>
<text text-anchor="start" x="568.5" y="-168.3" font-family="arial" font-size="14.00">2</text>
<polygon fill="none" stroke="black" points="596,-160.5 596,-183.5 665,-183.5 665,-160.5 596,-160.5"/>
<text text-anchor="start" x="616" y="-168.3" font-family="arial" font-size="14.00">RXD</text>
<polygon fill="none" stroke="black" points="549,-137.5 549,-160.5 596,-160.5 596,-137.5 549,-137.5"/>
<text text-anchor="start" x="568.5" y="-145.3" font-family="arial" font-size="14.00">3</text>
<polygon fill="none" stroke="black" points="596,-137.5 596,-160.5 665,-160.5 665,-137.5 596,-137.5"/>
<text text-anchor="start" x="616.5" y="-145.3" font-family="arial" font-size="14.00">TXD</text>
<polygon fill="none" stroke="black" points="549,-114.5 549,-137.5 596,-137.5 596,-114.5 549,-114.5"/>
<text text-anchor="start" x="568.5" y="-122.3" font-family="arial" font-size="14.00">4</text>
<polygon fill="none" stroke="black" points="596,-114.5 596,-137.5 665,-137.5 665,-114.5 596,-114.5"/>
<text text-anchor="start" x="616.5" y="-122.3" font-family="arial" font-size="14.00">DTR</text>
<polygon fill="none" stroke="black" points="549,-91.5 549,-114.5 596,-114.5 596,-91.5 549,-91.5"/>
<text text-anchor="start" x="568.5" y="-99.3" font-family="arial" font-size="14.00">5</text>
<polygon fill="none" stroke="black" points="596,-91.5 596,-114.5 665,-114.5 665,-91.5 596,-91.5"/>
<text text-anchor="start" x="615" y="-99.3" font-family="arial" font-size="14.00">GND</text>
<polygon fill="none" stroke="black" points="549,-68.5 549,-91.5 596,-91.5 596,-68.5 549,-68.5"/>
<text text-anchor="start" x="568.5" y="-76.3" font-family="arial" font-size="14.00">6</text>
<polygon fill="none" stroke="black" points="596,-68.5 596,-91.5 665,-91.5 665,-68.5 596,-68.5"/>
<text text-anchor="start" x="616" y="-76.3" font-family="arial" font-size="14.00">DSR</text>
<polygon fill="none" stroke="black" points="549,-45.5 549,-68.5 596,-68.5 596,-45.5 549,-45.5"/>
<text text-anchor="start" x="568.5" y="-53.3" font-family="arial" font-size="14.00">7</text>
<polygon fill="none" stroke="black" points="596,-45.5 596,-68.5 665,-68.5 665,-45.5 596,-45.5"/>
<text text-anchor="start" x="616.5" y="-53.3" font-family="arial" font-size="14.00">RTS</text>
<polygon fill="none" stroke="black" points="549,-22.5 549,-45.5 596,-45.5 596,-22.5 549,-22.5"/>
<text text-anchor="start" x="568.5" y="-30.3" font-family="arial" font-size="14.00">8</text>
<polygon fill="none" stroke="black" points="596,-22.5 596,-45.5 665,-45.5 665,-22.5 596,-22.5"/>
<text text-anchor="start" x="616.5" y="-30.3" font-family="arial" font-size="14.00">CTS</text>
<polygon fill="none" stroke="black" points="549,0.5 549,-22.5 596,-22.5 596,0.5 549,0.5"/>
<text text-anchor="start" x="568.5" y="-7.3" font-family="arial" font-size="14.00">9</text>
<polygon fill="none" stroke="black" points="596,0.5 596,-22.5 665,-22.5 665,0.5 596,0.5"/>
<text text-anchor="start" x="623.5" y="-7.3" font-family="arial" font-size="14.00">RI</text>
</g>
<!-- CON -->
<g id="node2" class="node">
<title>CON</title>
<polygon fill="white" stroke="transparent" points="129,-252.5 0,-252.5 0,-22.5 129,-22.5 129,-252.5"/>
<polygon fill="none" stroke="black" points="0.5,-229.5 0.5,-252.5 129.5,-252.5 129.5,-229.5 0.5,-229.5"/>
<text text-anchor="start" x="49.5" y="-237.3" font-family="arial" font-size="14.00">CON</text>
<polygon fill="none" stroke="black" points="0.5,-206.5 0.5,-229.5 40.5,-229.5 40.5,-206.5 0.5,-206.5"/>
<text text-anchor="start" x="4.5" y="-214.3" font-family="arial" font-size="14.00">RJ45</text>
<polygon fill="none" stroke="black" points="40.5,-206.5 40.5,-229.5 90.5,-229.5 90.5,-206.5 40.5,-206.5"/>
<text text-anchor="start" x="44.5" y="-214.3" font-family="arial" font-size="14.00">female</text>
<polygon fill="none" stroke="black" points="90.5,-206.5 90.5,-229.5 129.5,-229.5 129.5,-206.5 90.5,-206.5"/>
<text text-anchor="start" x="94.5" y="-214.3" font-family="arial" font-size="14.00">8&#45;pin</text>
<polygon fill="none" stroke="black" points="0.5,-183.5 0.5,-206.5 81.5,-206.5 81.5,-183.5 0.5,-183.5"/>
<text text-anchor="start" x="27" y="-191.3" font-family="arial" font-size="14.00">RTS</text>
<polygon fill="none" stroke="black" points="81.5,-183.5 81.5,-206.5 129.5,-206.5 129.5,-183.5 81.5,-183.5"/>
<text text-anchor="start" x="101.5" y="-191.3" font-family="arial" font-size="14.00">1</text>
<polygon fill="none" stroke="black" points="0.5,-160.5 0.5,-183.5 81.5,-183.5 81.5,-160.5 0.5,-160.5"/>
<text text-anchor="start" x="27" y="-168.3" font-family="arial" font-size="14.00">DTR</text>
<polygon fill="none" stroke="black" points="81.5,-160.5 81.5,-183.5 129.5,-183.5 129.5,-160.5 81.5,-160.5"/>
<text text-anchor="start" x="101.5" y="-168.3" font-family="arial" font-size="14.00">2</text>
<polygon fill="none" stroke="black" points="0.5,-137.5 0.5,-160.5 81.5,-160.5 81.5,-137.5 0.5,-137.5"/>
<text text-anchor="start" x="27" y="-145.3" font-family="arial" font-size="14.00">TXD</text>
<polygon fill="none" stroke="black" points="81.5,-137.5 81.5,-160.5 129.5,-160.5 129.5,-137.5 81.5,-137.5"/>
<text text-anchor="start" x="101.5" y="-145.3" font-family="arial" font-size="14.00">3</text>
<polygon fill="none" stroke="black" points="0.5,-114.5 0.5,-137.5 81.5,-137.5 81.5,-114.5 0.5,-114.5"/>
<text text-anchor="start" x="21" y="-122.3" font-family="arial" font-size="14.00">GNDA</text>
<polygon fill="none" stroke="black" points="81.5,-114.5 81.5,-137.5 129.5,-137.5 129.5,-114.5 81.5,-114.5"/>
<text text-anchor="start" x="101.5" y="-122.3" font-family="arial" font-size="14.00">4</text>
<polygon fill="none" stroke="black" points="0.5,-91.5 0.5,-114.5 81.5,-114.5 81.5,-91.5 0.5,-91.5"/>
<text text-anchor="start" x="21" y="-99.3" font-family="arial" font-size="14.00">GNDB</text>
<polygon fill="none" stroke="black" points="81.5,-91.5 81.5,-114.5 129.5,-114.5 129.5,-91.5 81.5,-91.5"/>
<text text-anchor="start" x="101.5" y="-99.3" font-family="arial" font-size="14.00">5</text>
<polygon fill="none" stroke="black" points="0.5,-68.5 0.5,-91.5 81.5,-91.5 81.5,-68.5 0.5,-68.5"/>
<text text-anchor="start" x="26.5" y="-76.3" font-family="arial" font-size="14.00">RXD</text>
<polygon fill="none" stroke="black" points="81.5,-68.5 81.5,-91.5 129.5,-91.5 129.5,-68.5 81.5,-68.5"/>
<text text-anchor="start" x="101.5" y="-76.3" font-family="arial" font-size="14.00">6</text>
<polygon fill="none" stroke="black" points="0.5,-45.5 0.5,-68.5 81.5,-68.5 81.5,-45.5 0.5,-45.5"/>
<text text-anchor="start" x="26.5" y="-53.3" font-family="arial" font-size="14.00">DSR</text>
<polygon fill="none" stroke="black" points="81.5,-45.5 81.5,-68.5 129.5,-68.5 129.5,-45.5 81.5,-45.5"/>
<text text-anchor="start" x="101.5" y="-53.3" font-family="arial" font-size="14.00">7</text>
<polygon fill="none" stroke="black" points="0.5,-22.5 0.5,-45.5 81.5,-45.5 81.5,-22.5 0.5,-22.5"/>
<text text-anchor="start" x="27" y="-30.3" font-family="arial" font-size="14.00">CTS</text>
<polygon fill="none" stroke="black" points="81.5,-22.5 81.5,-45.5 129.5,-45.5 129.5,-22.5 81.5,-22.5"/>
<text text-anchor="start" x="101.5" y="-30.3" font-family="arial" font-size="14.00">8</text>
</g>
<!-- Adapter -->
<g id="node3" class="node">
<title>Adapter</title>
<polygon fill="none" stroke="black" points="405,-242.5 273,-242.5 273,-4.5 405,-4.5 405,-242.5"/>
<text text-anchor="start" x="294.5" y="-229.3" font-family="arial" font-size="14.00"> </text>
<text text-anchor="start" x="275" y="-210.3" font-family="arial" font-size="14.00">CON:1</text>
<text text-anchor="start" x="324.5" y="-210.3" font-family="arial" font-size="14.00">BU</text>
<text text-anchor="start" x="350" y="-210.3" font-family="arial" font-size="14.00">RS232:7</text>
<polygon fill="#000000" stroke="transparent" points="273,-202.5 273,-204.5 405,-204.5 405,-202.5 273,-202.5"/>
<polygon fill="#0066ff" stroke="transparent" points="273,-200.5 273,-202.5 405,-202.5 405,-200.5 273,-200.5"/>
<polygon fill="#000000" stroke="transparent" points="273,-198.5 273,-200.5 405,-200.5 405,-198.5 273,-198.5"/>
<text text-anchor="start" x="275" y="-185.3" font-family="arial" font-size="14.00">CON:2</text>
<text text-anchor="start" x="322.5" y="-185.3" font-family="arial" font-size="14.00">OG</text>
<text text-anchor="start" x="350" y="-185.3" font-family="arial" font-size="14.00">RS232:4</text>
<polygon fill="#000000" stroke="transparent" points="273,-177.5 273,-179.5 405,-179.5 405,-177.5 273,-177.5"/>
<polygon fill="#ff8000" stroke="transparent" points="273,-175.5 273,-177.5 405,-177.5 405,-175.5 273,-175.5"/>
<polygon fill="#000000" stroke="transparent" points="273,-173.5 273,-175.5 405,-175.5 405,-173.5 273,-173.5"/>
<text text-anchor="start" x="275" y="-160.3" font-family="arial" font-size="14.00">CON:3</text>
<text text-anchor="start" x="324.5" y="-160.3" font-family="arial" font-size="14.00">BK</text>
<text text-anchor="start" x="350" y="-160.3" font-family="arial" font-size="14.00">RS232:3</text>
<polygon fill="#000000" stroke="transparent" points="273,-152.5 273,-154.5 405,-154.5 405,-152.5 273,-152.5"/>
<polygon fill="#000000" stroke="transparent" points="273,-150.5 273,-152.5 405,-152.5 405,-150.5 273,-150.5"/>
<polygon fill="#000000" stroke="transparent" points="273,-148.5 273,-150.5 405,-150.5 405,-148.5 273,-148.5"/>
<text text-anchor="start" x="275" y="-135.3" font-family="arial" font-size="14.00">CON:4</text>
<text text-anchor="start" x="324" y="-135.3" font-family="arial" font-size="14.00">RD</text>
<text text-anchor="start" x="350" y="-135.3" font-family="arial" font-size="14.00">RS232:5</text>
<polygon fill="#000000" stroke="transparent" points="273,-127.5 273,-129.5 405,-129.5 405,-127.5 273,-127.5"/>
<polygon fill="#ff0000" stroke="transparent" points="273,-125.5 273,-127.5 405,-127.5 405,-125.5 273,-125.5"/>
<polygon fill="#000000" stroke="transparent" points="273,-123.5 273,-125.5 405,-125.5 405,-123.5 273,-123.5"/>
<text text-anchor="start" x="275" y="-110.3" font-family="arial" font-size="14.00">CON:5</text>
<text text-anchor="start" x="323" y="-110.3" font-family="arial" font-size="14.00">GN</text>
<text text-anchor="start" x="350" y="-110.3" font-family="arial" font-size="14.00">RS232:5</text>
<polygon fill="#000000" stroke="transparent" points="273,-102.5 273,-104.5 405,-104.5 405,-102.5 273,-102.5"/>
<polygon fill="#00ff00" stroke="transparent" points="273,-100.5 273,-102.5 405,-102.5 405,-100.5 273,-100.5"/>
<polygon fill="#000000" stroke="transparent" points="273,-98.5 273,-100.5 405,-100.5 405,-98.5 273,-98.5"/>
<text text-anchor="start" x="275" y="-85.3" font-family="arial" font-size="14.00">CON:6</text>
<text text-anchor="start" x="324.5" y="-85.3" font-family="arial" font-size="14.00">YE</text>
<text text-anchor="start" x="350" y="-85.3" font-family="arial" font-size="14.00">RS232:2</text>
<polygon fill="#000000" stroke="transparent" points="273,-77.5 273,-79.5 405,-79.5 405,-77.5 273,-77.5"/>
<polygon fill="#ffff00" stroke="transparent" points="273,-75.5 273,-77.5 405,-77.5 405,-75.5 273,-75.5"/>
<polygon fill="#000000" stroke="transparent" points="273,-73.5 273,-75.5 405,-75.5 405,-73.5 273,-73.5"/>
<text text-anchor="start" x="275" y="-60.3" font-family="arial" font-size="14.00">CON:7</text>
<text text-anchor="start" x="324.5" y="-60.3" font-family="arial" font-size="14.00">BN</text>
<text text-anchor="start" x="350" y="-60.3" font-family="arial" font-size="14.00">RS232:6</text>
<polygon fill="#000000" stroke="transparent" points="273,-52.5 273,-54.5 405,-54.5 405,-52.5 273,-52.5"/>
<polygon fill="#895956" stroke="transparent" points="273,-50.5 273,-52.5 405,-52.5 405,-50.5 273,-50.5"/>
<polygon fill="#000000" stroke="transparent" points="273,-48.5 273,-50.5 405,-50.5 405,-48.5 273,-48.5"/>
<text text-anchor="start" x="275" y="-35.3" font-family="arial" font-size="14.00">CON:8</text>
<text text-anchor="start" x="322" y="-35.3" font-family="arial" font-size="14.00">WH</text>
<text text-anchor="start" x="350" y="-35.3" font-family="arial" font-size="14.00">RS232:8</text>
<polygon fill="#000000" stroke="transparent" points="273,-27.5 273,-29.5 405,-29.5 405,-27.5 273,-27.5"/>
<polygon fill="#ffffff" stroke="transparent" points="273,-25.5 273,-27.5 405,-27.5 405,-25.5 273,-25.5"/>
<polygon fill="#000000" stroke="transparent" points="273,-23.5 273,-25.5 405,-25.5 405,-23.5 273,-23.5"/>
<text text-anchor="start" x="294.5" y="-10.3" font-family="arial" font-size="14.00"> </text>
</g>
<!-- CON&#45;&#45;Adapter -->
<g id="edge1" class="edge">
<title>CON:e&#45;&#45;Adapter:w</title>
<path fill="none" stroke="#000000" stroke-width="2" d="M129,-193.5C193.76,-193.63 209.65,-199.63 273,-199.5"/>
<path fill="none" stroke="#0066ff" stroke-width="2" d="M129,-195.5C193.06,-195.5 208.94,-201.5 273,-201.5"/>
<path fill="none" stroke="#000000" stroke-width="2" d="M129,-197.5C192.35,-197.37 208.24,-203.37 273,-203.5"/>
</g>
<!-- CON&#45;&#45;Adapter -->
<g id="edge3" class="edge">
<title>CON:e&#45;&#45;Adapter:w</title>
<path fill="none" stroke="#000000" stroke-width="2" d="M129,-170.5C193.51,-170.56 209.46,-174.56 273,-174.5"/>
<path fill="none" stroke="#ff8000" stroke-width="2" d="M129,-172.5C193.02,-172.5 208.98,-176.5 273,-176.5"/>
<path fill="none" stroke="#000000" stroke-width="2" d="M129,-174.5C192.54,-174.44 208.49,-178.44 273,-178.5"/>
</g>
<!-- CON&#45;&#45;Adapter -->
<g id="edge5" class="edge">
<title>CON:e&#45;&#45;Adapter:w</title>
<path fill="none" stroke="#000000" stroke-width="2" d="M129,-147.5C193.25,-147.52 209.24,-149.52 273,-149.5"/>
<path fill="none" stroke="#000000" stroke-width="2" d="M129,-149.5C193.01,-149.5 208.99,-151.5 273,-151.5"/>
<path fill="none" stroke="#000000" stroke-width="2" d="M129,-151.5C192.76,-151.48 208.75,-153.48 273,-153.5"/>
</g>
<!-- CON&#45;&#45;Adapter -->
<g id="edge7" class="edge">
<title>CON:e&#45;&#45;Adapter:w</title>
<path fill="none" stroke="#000000" stroke-width="2" d="M129,-123.5C193.13,-123.5 209.12,-124.5 273,-124.5"/>
<path fill="none" stroke="#ff0000" stroke-width="2" d="M129,-125.5C193,-125.5 209,-126.5 273,-126.5"/>
<path fill="none" stroke="#000000" stroke-width="2" d="M129,-127.5C192.88,-127.5 208.87,-128.5 273,-128.5"/>
</g>
<!-- CON&#45;&#45;Adapter -->
<g id="edge9" class="edge">
<title>CON:e&#45;&#45;Adapter:w</title>
<path fill="none" stroke="#000000" stroke-width="2" d="M129,-100.5C192.88,-100.5 208.87,-99.5 273,-99.5"/>
<path fill="none" stroke="#00ff00" stroke-width="2" d="M129,-102.5C193,-102.5 209,-101.5 273,-101.5"/>
<path fill="none" stroke="#000000" stroke-width="2" d="M129,-104.5C193.13,-104.5 209.12,-103.5 273,-103.5"/>
</g>
<!-- CON&#45;&#45;Adapter -->
<g id="edge11" class="edge">
<title>CON:e&#45;&#45;Adapter:w</title>
<path fill="none" stroke="#000000" stroke-width="2" d="M129,-77.5C192.64,-77.53 208.62,-74.53 273,-74.5"/>
<path fill="none" stroke="#ffff00" stroke-width="2" d="M129,-79.5C193.01,-79.5 208.99,-76.5 273,-76.5"/>
<path fill="none" stroke="#000000" stroke-width="2" d="M129,-81.5C193.38,-81.47 209.36,-78.47 273,-78.5"/>
</g>
<!-- CON&#45;&#45;Adapter -->
<g id="edge13" class="edge">
<title>CON:e&#45;&#45;Adapter:w</title>
<path fill="none" stroke="#000000" stroke-width="2" d="M129,-54.5C192.44,-54.59 208.36,-49.59 273,-49.5"/>
<path fill="none" stroke="#895956" stroke-width="2" d="M129,-56.5C193.04,-56.5 208.96,-51.5 273,-51.5"/>
<path fill="none" stroke="#000000" stroke-width="2" d="M129,-58.5C193.64,-58.41 209.56,-53.41 273,-53.5"/>
</g>
<!-- CON&#45;&#45;Adapter -->
<g id="edge15" class="edge">
<title>CON:e&#45;&#45;Adapter:w</title>
<path fill="none" stroke="#000000" stroke-width="2" d="M129,-31.5C192.27,-31.67 208.12,-24.67 273,-24.5"/>
<path fill="none" stroke="#ffffff" stroke-width="2" d="M129,-33.5C193.08,-33.5 208.92,-26.5 273,-26.5"/>
<path fill="none" stroke="#000000" stroke-width="2" d="M129,-35.5C193.88,-35.33 209.73,-28.33 273,-28.5"/>
</g>
<!-- Adapter&#45;&#45;RS232 -->
<g id="edge2" class="edge">
<title>Adapter:e&#45;&#45;RS232:w</title>
<path fill="none" stroke="#000000" stroke-width="2" d="M405,-199.5C493.89,-202 456.24,-57 549,-54.5"/>
<path fill="none" stroke="#0066ff" stroke-width="2" d="M405,-201.5C495.82,-201.5 458.18,-56.5 549,-56.5"/>
<path fill="none" stroke="#000000" stroke-width="2" d="M405,-203.5C497.76,-201 460.11,-56 549,-58.5"/>
</g>
<!-- Adapter&#45;&#45;RS232 -->
<g id="edge4" class="edge">
<title>Adapter:e&#45;&#45;RS232:w</title>
<path fill="none" stroke="#000000" stroke-width="2" d="M405,-174.5C470.92,-176.18 479.13,-125.18 549,-123.5"/>
<path fill="none" stroke="#ff8000" stroke-width="2" d="M405,-176.5C472.9,-176.5 481.1,-125.5 549,-125.5"/>
<path fill="none" stroke="#000000" stroke-width="2" d="M405,-178.5C474.87,-176.82 483.08,-125.82 549,-127.5"/>
</g>
<!-- Adapter&#45;&#45;RS232 -->
<g id="edge6" class="edge">
<title>Adapter:e&#45;&#45;RS232:w</title>
<path fill="none" stroke="#000000" stroke-width="2" d="M405,-149.5C468.76,-149.52 484.75,-147.52 549,-147.5"/>
<path fill="none" stroke="#000000" stroke-width="2" d="M405,-151.5C469.01,-151.5 484.99,-149.5 549,-149.5"/>
<path fill="none" stroke="#000000" stroke-width="2" d="M405,-153.5C469.25,-153.48 485.24,-151.48 549,-151.5"/>
</g>
<!-- Adapter&#45;&#45;RS232 -->
<g id="edge8" class="edge">
<title>Adapter:e&#45;&#45;RS232:w</title>
<path fill="none" stroke="#000000" stroke-width="2" d="M405,-124.5C468.16,-125.48 482.4,-101.48 549,-100.5"/>
<path fill="none" stroke="#ff0000" stroke-width="2" d="M405,-126.5C469.88,-126.5 484.12,-102.5 549,-102.5"/>
<path fill="none" stroke="#000000" stroke-width="2" d="M405,-128.5C471.6,-127.52 485.84,-103.52 549,-104.5"/>
</g>
<!-- Adapter&#45;&#45;RS232 -->
<g id="edge10" class="edge">
<title>Adapter:e&#45;&#45;RS232:w</title>
<path fill="none" stroke="#000000" stroke-width="2" d="M405,-99.5C469.13,-99.5 485.12,-100.5 549,-100.5"/>
<path fill="none" stroke="#00ff00" stroke-width="2" d="M405,-101.5C469,-101.5 485,-102.5 549,-102.5"/>
<path fill="none" stroke="#000000" stroke-width="2" d="M405,-103.5C468.88,-103.5 484.87,-104.5 549,-104.5"/>
</g>
<!-- Adapter&#45;&#45;RS232 -->
<g id="edge12" class="edge">
<title>Adapter:e&#45;&#45;RS232:w</title>
<path fill="none" stroke="#000000" stroke-width="2" d="M405,-74.5C483.91,-76.7 474.07,-172.7 549,-170.5"/>
<path fill="none" stroke="#ffff00" stroke-width="2" d="M405,-76.5C481.92,-76.5 472.08,-172.5 549,-172.5"/>
<path fill="none" stroke="#000000" stroke-width="2" d="M405,-78.5C479.93,-76.3 470.09,-172.3 549,-174.5"/>
</g>
<!-- Adapter&#45;&#45;RS232 -->
<g id="edge14" class="edge">
<title>Adapter:e&#45;&#45;RS232:w</title>
<path fill="none" stroke="#000000" stroke-width="2" d="M405,-49.5C472,-50.63 485.6,-78.63 549,-77.5"/>
<path fill="none" stroke="#895956" stroke-width="2" d="M405,-51.5C470.2,-51.5 483.8,-79.5 549,-79.5"/>
<path fill="none" stroke="#000000" stroke-width="2" d="M405,-53.5C468.4,-52.37 482,-80.37 549,-81.5"/>
</g>
<!-- Adapter&#45;&#45;RS232 -->
<g id="edge16" class="edge">
<title>Adapter:e&#45;&#45;RS232:w</title>
<path fill="none" stroke="#000000" stroke-width="2" d="M405,-24.5C469.88,-24.67 485.73,-31.67 549,-31.5"/>
<path fill="none" stroke="#ffffff" stroke-width="2" d="M405,-26.5C469.08,-26.5 484.92,-33.5 549,-33.5"/>
<path fill="none" stroke="#000000" stroke-width="2" d="M405,-28.5C468.27,-28.33 484.12,-35.33 549,-35.5"/>
</g>
</g>
</svg>
