<?xml version="1.0" encoding="UTF-8" standalone="no"?>
<!DOCTYPE svg PUBLIC "-//W3C//DTD SVG 1.1//EN"
 "http://www.w3.org/Graphics/SVG/1.1/DTD/svg11.dtd">
<!-- Generated by graphviz version 2.43.0 (0)
 -->
<!-- Title: %3 Pages: 1 -->
<svg width="694pt" height="301pt"
 viewBox="0.00 0.00 694.00 301.00" xmlns="http://www.w3.org/2000/svg" xmlns:xlink="http://www.w3.org/1999/xlink">
<g id="graph0" class="graph" transform="scale(1 1) rotate(0) translate(4 297)">
<title>%3</title>
<polygon fill="white" stroke="transparent" points="-4,4 -4,-297 690,-297 690,4 -4,4"/>
<!-- ETH&#45;A -->
<g id="node1" class="node">
<title>ETH&#45;A</title>
<polygon fill="white" stroke="transparent" points="118,-263.5 0,-263.5 0,-33.5 118,-33.5 118,-263.5"/>
<polygon fill="none" stroke="black" points="0,-240.5 0,-263.5 118,-263.5 118,-240.5 0,-240.5"/>
<text text-anchor="start" x="38.5" y="-248.3" font-family="arial" font-size="14.00">ETH&#45;A</text>
<polygon fill="none" stroke="black" points="0,-217.5 0,-240.5 40,-240.5 40,-217.5 0,-217.5"/>
<text text-anchor="start" x="4" y="-225.3" font-family="arial" font-size="14.00">RJ45</text>
<polygon fill="none" stroke="black" points="40,-217.5 40,-240.5 79,-240.5 79,-217.5 40,-217.5"/>
<text text-anchor="start" x="44" y="-225.3" font-family="arial" font-size="14.00">male</text>
<polygon fill="none" stroke="black" points="79,-217.5 79,-240.5 118,-240.5 118,-217.5 79,-217.5"/>
<text text-anchor="start" x="83" y="-225.3" font-family="arial" font-size="14.00">8&#45;pin</text>
<polygon fill="none" stroke="black" points="0,-194.5 0,-217.5 69,-217.5 69,-194.5 0,-194.5"/>
<text text-anchor="start" x="20.5" y="-202.3" font-family="arial" font-size="14.00">DA+</text>
<polygon fill="none" stroke="black" points="69,-194.5 69,-217.5 118,-217.5 118,-194.5 69,-194.5"/>
<text text-anchor="start" x="89.5" y="-202.3" font-family="arial" font-size="14.00">1</text>
<polygon fill="none" stroke="black" points="0,-171.5 0,-194.5 69,-194.5 69,-171.5 0,-171.5"/>
<text text-anchor="start" x="22.5" y="-179.3" font-family="arial" font-size="14.00">DA&#45;</text>
<polygon fill="none" stroke="black" points="69,-171.5 69,-194.5 118,-194.5 118,-171.5 69,-171.5"/>
<text text-anchor="start" x="89.5" y="-179.3" font-family="arial" font-size="14.00">2</text>
<polygon fill="none" stroke="black" points="0,-148.5 0,-171.5 69,-171.5 69,-148.5 0,-148.5"/>
<text text-anchor="start" x="20.5" y="-156.3" font-family="arial" font-size="14.00">DB+</text>
<polygon fill="none" stroke="black" points="69,-148.5 69,-171.5 118,-171.5 118,-148.5 69,-148.5"/>
<text text-anchor="start" x="89.5" y="-156.3" font-family="arial" font-size="14.00">3</text>
<polygon fill="none" stroke="black" points="0,-125.5 0,-148.5 69,-148.5 69,-125.5 0,-125.5"/>
<text text-anchor="start" x="20.5" y="-133.3" font-family="arial" font-size="14.00">DC+</text>
<polygon fill="none" stroke="black" points="69,-125.5 69,-148.5 118,-148.5 118,-125.5 69,-125.5"/>
<text text-anchor="start" x="89.5" y="-133.3" font-family="arial" font-size="14.00">4</text>
<polygon fill="none" stroke="black" points="0,-102.5 0,-125.5 69,-125.5 69,-102.5 0,-102.5"/>
<text text-anchor="start" x="22" y="-110.3" font-family="arial" font-size="14.00">DC&#45;</text>
<polygon fill="none" stroke="black" points="69,-102.5 69,-125.5 118,-125.5 118,-102.5 69,-102.5"/>
<text text-anchor="start" x="89.5" y="-110.3" font-family="arial" font-size="14.00">5</text>
<polygon fill="none" stroke="black" points="0,-79.5 0,-102.5 69,-102.5 69,-79.5 0,-79.5"/>
<text text-anchor="start" x="22.5" y="-87.3" font-family="arial" font-size="14.00">DB&#45;</text>
<polygon fill="none" stroke="black" points="69,-79.5 69,-102.5 118,-102.5 118,-79.5 69,-79.5"/>
<text text-anchor="start" x="89.5" y="-87.3" font-family="arial" font-size="14.00">6</text>
<polygon fill="none" stroke="black" points="0,-56.5 0,-79.5 69,-79.5 69,-56.5 0,-56.5"/>
<text text-anchor="start" x="20.5" y="-64.3" font-family="arial" font-size="14.00">DD+</text>
<polygon fill="none" stroke="black" points="69,-56.5 69,-79.5 118,-79.5 118,-56.5 69,-56.5"/>
<text text-anchor="start" x="89.5" y="-64.3" font-family="arial" font-size="14.00">7</text>
<polygon fill="none" stroke="black" points="0,-33.5 0,-56.5 69,-56.5 69,-33.5 0,-33.5"/>
<text text-anchor="start" x="22" y="-41.3" font-family="arial" font-size="14.00">DD&#45;</text>
<polygon fill="none" stroke="black" points="69,-33.5 69,-56.5 118,-56.5 118,-33.5 69,-33.5"/>
<text text-anchor="start" x="89.5" y="-41.3" font-family="arial" font-size="14.00">8</text>
</g>
<!-- CAT6 -->
<g id="node3" class="node">
<title>CAT6</title>
<polygon fill="none" stroke="black" points="424,-293 262,-293 262,0 424,0 424,-293"/>
<polygon fill="none" stroke="black" points="262,-269.5 262,-292.5 424,-292.5 424,-269.5 262,-269.5"/>
<text text-anchor="start" x="326" y="-277.3" font-family="arial" font-size="14.00">CAT6</text>
<text text-anchor="start" x="288" y="-256.3" font-family="arial" font-size="14.00"> </text>
<text text-anchor="start" x="264" y="-237.3" font-family="arial" font-size="14.00">ETH&#45;A:1</text>
<text text-anchor="start" x="320.5" y="-237.3" font-family="arial" font-size="14.00">WHGN</text>
<text text-anchor="start" x="370" y="-237.3" font-family="arial" font-size="14.00">ETH&#45;B:3</text>
<polygon fill="#000000" stroke="transparent" points="262,-229.5 262,-231.5 424,-231.5 424,-229.5 262,-229.5"/>
<polygon fill="#ffffff" stroke="transparent" points="262,-227.5 262,-229.5 424,-229.5 424,-227.5 262,-227.5"/>
<polygon fill="#00ff00" stroke="transparent" points="262,-225.5 262,-227.5 424,-227.5 424,-225.5 262,-225.5"/>
<polygon fill="#ffffff" stroke="transparent" points="262,-223.5 262,-225.5 424,-225.5 424,-223.5 262,-223.5"/>
<polygon fill="#000000" stroke="transparent" points="262,-221.5 262,-223.5 424,-223.5 424,-221.5 262,-221.5"/>
<text text-anchor="start" x="264" y="-208.3" font-family="arial" font-size="14.00">ETH&#45;A:2</text>
<text text-anchor="start" x="332" y="-208.3" font-family="arial" font-size="14.00">GN</text>
<text text-anchor="start" x="370" y="-208.3" font-family="arial" font-size="14.00">ETH&#45;B:6</text>
<polygon fill="#000000" stroke="transparent" points="262,-200.5 262,-202.5 424,-202.5 424,-200.5 262,-200.5"/>
<polygon fill="#00ff00" stroke="transparent" points="262,-198.5 262,-200.5 424,-200.5 424,-198.5 262,-198.5"/>
<polygon fill="#00ff00" stroke="transparent" points="262,-196.5 262,-198.5 424,-198.5 424,-196.5 262,-196.5"/>
<polygon fill="#00ff00" stroke="transparent" points="262,-194.5 262,-196.5 424,-196.5 424,-194.5 262,-194.5"/>
<polygon fill="#000000" stroke="transparent" points="262,-192.5 262,-194.5 424,-194.5 424,-192.5 262,-192.5"/>
<text text-anchor="start" x="264" y="-179.3" font-family="arial" font-size="14.00">ETH&#45;A:3</text>
<text text-anchor="start" x="320" y="-179.3" font-family="arial" font-size="14.00">WHOG</text>
<text text-anchor="start" x="370" y="-179.3" font-family="arial" font-size="14.00">ETH&#45;B:1</text>
<polygon fill="#000000" stroke="transparent" points="262,-171.5 262,-173.5 424,-173.5 424,-171.5 262,-171.5"/>
<polygon fill="#ffffff" stroke="transparent" points="262,-169.5 262,-171.5 424,-171.5 424,-169.5 262,-169.5"/>
<polygon fill="#ff8000" stroke="transparent" points="262,-167.5 262,-169.5 424,-169.5 424,-167.5 262,-167.5"/>
<polygon fill="#ffffff" stroke="transparent" points="262,-165.5 262,-167.5 424,-167.5 424,-165.5 262,-165.5"/>
<polygon fill="#000000" stroke="transparent" points="262,-163.5 262,-165.5 424,-165.5 424,-163.5 262,-163.5"/>
<text text-anchor="start" x="264" y="-150.3" font-family="arial" font-size="14.00">ETH&#45;A:4</text>
<text text-anchor="start" x="333.5" y="-150.3" font-family="arial" font-size="14.00">BU</text>
<text text-anchor="start" x="370" y="-150.3" font-family="arial" font-size="14.00">ETH&#45;B:7</text>
<polygon fill="#000000" stroke="transparent" points="262,-142.5 262,-144.5 424,-144.5 424,-142.5 262,-142.5"/>
<polygon fill="#0066ff" stroke="transparent" points="262,-140.5 262,-142.5 424,-142.5 424,-140.5 262,-140.5"/>
<polygon fill="#0066ff" stroke="transparent" points="262,-138.5 262,-140.5 424,-140.5 424,-138.5 262,-138.5"/>
<polygon fill="#0066ff" stroke="transparent" points="262,-136.5 262,-138.5 424,-138.5 424,-136.5 262,-136.5"/>
<polygon fill="#000000" stroke="transparent" points="262,-134.5 262,-136.5 424,-136.5 424,-134.5 262,-134.5"/>
<text text-anchor="start" x="264" y="-121.3" font-family="arial" font-size="14.00">ETH&#45;A:5</text>
<text text-anchor="start" x="321.5" y="-121.3" font-family="arial" font-size="14.00">WHBU</text>
<text text-anchor="start" x="370" y="-121.3" font-family="arial" font-size="14.00">ETH&#45;B:8</text>
<polygon fill="#000000" stroke="transparent" points="262,-113.5 262,-115.5 424,-115.5 424,-113.5 262,-113.5"/>
<polygon fill="#ffffff" stroke="transparent" points="262,-111.5 262,-113.5 424,-113.5 424,-111.5 262,-111.5"/>
<polygon fill="#0066ff" stroke="transparent" points="262,-109.5 262,-111.5 424,-111.5 424,-109.5 262,-109.5"/>
<polygon fill="#ffffff" stroke="transparent" points="262,-107.5 262,-109.5 424,-109.5 424,-107.5 262,-107.5"/>
<polygon fill="#000000" stroke="transparent" points="262,-105.5 262,-107.5 424,-107.5 424,-105.5 262,-105.5"/>
<text text-anchor="start" x="264" y="-92.3" font-family="arial" font-size="14.00">ETH&#45;A:6</text>
<text text-anchor="start" x="331.5" y="-92.3" font-family="arial" font-size="14.00">OG</text>
<text text-anchor="start" x="370" y="-92.3" font-family="arial" font-size="14.00">ETH&#45;B:2</text>
<polygon fill="#000000" stroke="transparent" points="262,-84.5 262,-86.5 424,-86.5 424,-84.5 262,-84.5"/>
<polygon fill="#ff8000" stroke="transparent" points="262,-82.5 262,-84.5 424,-84.5 424,-82.5 262,-82.5"/>
<polygon fill="#ff8000" stroke="transparent" points="262,-80.5 262,-82.5 424,-82.5 424,-80.5 262,-80.5"/>
<polygon fill="#ff8000" stroke="transparent" points="262,-78.5 262,-80.5 424,-80.5 424,-78.5 262,-78.5"/>
<polygon fill="#000000" stroke="transparent" points="262,-76.5 262,-78.5 424,-78.5 424,-76.5 262,-76.5"/>
<text text-anchor="start" x="264" y="-63.3" font-family="arial" font-size="14.00">ETH&#45;A:7</text>
<text text-anchor="start" x="321.5" y="-63.3" font-family="arial" font-size="14.00">WHBN</text>
<text text-anchor="start" x="370" y="-63.3" font-family="arial" font-size="14.00">ETH&#45;B:4</text>
<polygon fill="#000000" stroke="transparent" points="262,-55.5 262,-57.5 424,-57.5 424,-55.5 262,-55.5"/>
<polygon fill="#ffffff" stroke="transparent" points="262,-53.5 262,-55.5 424,-55.5 424,-53.5 262,-53.5"/>
<polygon fill="#895956" stroke="transparent" points="262,-51.5 262,-53.5 424,-53.5 424,-51.5 262,-51.5"/>
<polygon fill="#ffffff" stroke="transparent" points="262,-49.5 262,-51.5 424,-51.5 424,-49.5 262,-49.5"/>
<polygon fill="#000000" stroke="transparent" points="262,-47.5 262,-49.5 424,-49.5 424,-47.5 262,-47.5"/>
<text text-anchor="start" x="264" y="-34.3" font-family="arial" font-size="14.00">ETH&#45;A:8</text>
<text text-anchor="start" x="333.5" y="-34.3" font-family="arial" font-size="14.00">BN</text>
<text text-anchor="start" x="370" y="-34.3" font-family="arial" font-size="14.00">ETH&#45;B:5</text>
<polygon fill="#000000" stroke="transparent" points="262,-26.5 262,-28.5 424,-28.5 424,-26.5 262,-26.5"/>
<polygon fill="#895956" stroke="transparent" points="262,-24.5 262,-26.5 424,-26.5 424,-24.5 262,-24.5"/>
<polygon fill="#895956" stroke="transparent" points="262,-22.5 262,-24.5 424,-24.5 424,-22.5 262,-22.5"/>
<polygon fill="#895956" stroke="transparent" points="262,-20.5 262,-22.5 424,-22.5 424,-20.5 262,-20.5"/>
<polygon fill="#000000" stroke="transparent" points="262,-18.5 262,-20.5 424,-20.5 424,-18.5 262,-18.5"/>
<text text-anchor="start" x="288" y="-5.3" font-family="arial" font-size="14.00"> </text>
</g>
<!-- ETH&#45;A&#45;&#45;CAT6 -->
<g id="edge1" class="edge">
<title>ETH&#45;A:e&#45;&#45;CAT6:w</title>
<path fill="none" stroke="#000000" stroke-width="2" d="M118,-202.5C185.83,-204.12 200.6,-224.12 262,-222.5"/>
<path fill="none" stroke="#ffffff" stroke-width="2" d="M118,-204.5C184.22,-205.31 198.99,-225.31 262,-224.5"/>
<path fill="none" stroke="#00ff00" stroke-width="2" d="M118,-206.5C182.61,-206.5 197.39,-226.5 262,-226.5"/>
<path fill="none" stroke="#ffffff" stroke-width="2" d="M118,-208.5C181.01,-207.69 195.78,-227.69 262,-228.5"/>
<path fill="none" stroke="#000000" stroke-width="2" d="M118,-210.5C179.4,-208.88 194.17,-228.88 262,-230.5"/>
</g>
<!-- ETH&#45;A&#45;&#45;CAT6 -->
<g id="edge3" class="edge">
<title>ETH&#45;A:e&#45;&#45;CAT6:w</title>
<path fill="none" stroke="#000000" stroke-width="2" d="M118,-179.5C184.99,-180.54 200.39,-194.54 262,-193.5"/>
<path fill="none" stroke="#00ff00" stroke-width="2" d="M118,-181.5C183.65,-182.02 199.04,-196.02 262,-195.5"/>
<path fill="none" stroke="#00ff00" stroke-width="2" d="M118,-183.5C182.3,-183.5 197.7,-197.5 262,-197.5"/>
<path fill="none" stroke="#00ff00" stroke-width="2" d="M118,-185.5C180.96,-184.98 196.35,-198.98 262,-199.5"/>
<path fill="none" stroke="#000000" stroke-width="2" d="M118,-187.5C179.61,-186.46 195.01,-200.46 262,-201.5"/>
</g>
<!-- ETH&#45;A&#45;&#45;CAT6 -->
<g id="edge5" class="edge">
<title>ETH&#45;A:e&#45;&#45;CAT6:w</title>
<path fill="none" stroke="#000000" stroke-width="2" d="M118,-156.5C183.91,-156.93 199.71,-164.93 262,-164.5"/>
<path fill="none" stroke="#ffffff" stroke-width="2" d="M118,-158.5C183,-158.72 198.8,-166.72 262,-166.5"/>
<path fill="none" stroke="#ff8000" stroke-width="2" d="M118,-160.5C182.1,-160.5 197.9,-168.5 262,-168.5"/>
<path fill="none" stroke="#ffffff" stroke-width="2" d="M118,-162.5C181.2,-162.28 197,-170.28 262,-170.5"/>
<path fill="none" stroke="#000000" stroke-width="2" d="M118,-164.5C180.29,-164.07 196.09,-172.07 262,-172.5"/>
</g>
<!-- ETH&#45;A&#45;&#45;CAT6 -->
<g id="edge7" class="edge">
<title>ETH&#45;A:e&#45;&#45;CAT6:w</title>
<path fill="none" stroke="#000000" stroke-width="2" d="M118,-132.5C182.75,-132.57 198.72,-135.57 262,-135.5"/>
<path fill="none" stroke="#0066ff" stroke-width="2" d="M118,-134.5C182.38,-134.53 198.36,-137.53 262,-137.5"/>
<path fill="none" stroke="#0066ff" stroke-width="2" d="M118,-136.5C182.01,-136.5 197.99,-139.5 262,-139.5"/>
<path fill="none" stroke="#0066ff" stroke-width="2" d="M118,-138.5C181.64,-138.47 197.62,-141.47 262,-141.5"/>
<path fill="none" stroke="#000000" stroke-width="2" d="M118,-140.5C181.28,-140.43 197.25,-143.43 262,-143.5"/>
</g>
<!-- ETH&#45;A&#45;&#45;CAT6 -->
<g id="edge9" class="edge">
<title>ETH&#45;A:e&#45;&#45;CAT6:w</title>
<path fill="none" stroke="#000000" stroke-width="2" d="M118,-109.5C181.28,-109.57 197.25,-106.57 262,-106.5"/>
<path fill="none" stroke="#ffffff" stroke-width="2" d="M118,-111.5C181.64,-111.53 197.62,-108.53 262,-108.5"/>
<path fill="none" stroke="#0066ff" stroke-width="2" d="M118,-113.5C182.01,-113.5 197.99,-110.5 262,-110.5"/>
<path fill="none" stroke="#ffffff" stroke-width="2" d="M118,-115.5C182.38,-115.47 198.36,-112.47 262,-112.5"/>
<path fill="none" stroke="#000000" stroke-width="2" d="M118,-117.5C182.75,-117.43 198.72,-114.43 262,-114.5"/>
</g>
<!-- ETH&#45;A&#45;&#45;CAT6 -->
<g id="edge11" class="edge">
<title>ETH&#45;A:e&#45;&#45;CAT6:w</title>
<path fill="none" stroke="#000000" stroke-width="2" d="M118,-86.5C180.14,-87.03 195.89,-78.03 262,-77.5"/>
<path fill="none" stroke="#ff8000" stroke-width="2" d="M118,-88.5C181.13,-88.76 196.88,-79.76 262,-79.5"/>
<path fill="none" stroke="#ff8000" stroke-width="2" d="M118,-90.5C182.12,-90.5 197.88,-81.5 262,-81.5"/>
<path fill="none" stroke="#ff8000" stroke-width="2" d="M118,-92.5C183.12,-92.24 198.87,-83.24 262,-83.5"/>
<path fill="none" stroke="#000000" stroke-width="2" d="M118,-94.5C184.11,-93.97 199.86,-84.97 262,-85.5"/>
</g>
<!-- ETH&#45;A&#45;&#45;CAT6 -->
<g id="edge13" class="edge">
<title>ETH&#45;A:e&#45;&#45;CAT6:w</title>
<path fill="none" stroke="#000000" stroke-width="2" d="M118,-63.5C179.55,-64.64 194.85,-49.64 262,-48.5"/>
<path fill="none" stroke="#ffffff" stroke-width="2" d="M118,-65.5C180.95,-66.07 196.25,-51.07 262,-50.5"/>
<path fill="none" stroke="#895956" stroke-width="2" d="M118,-67.5C182.35,-67.5 197.65,-52.5 262,-52.5"/>
<path fill="none" stroke="#ffffff" stroke-width="2" d="M118,-69.5C183.75,-68.93 199.05,-53.93 262,-54.5"/>
<path fill="none" stroke="#000000" stroke-width="2" d="M118,-71.5C185.15,-70.36 200.45,-55.36 262,-56.5"/>
</g>
<!-- ETH&#45;A&#45;&#45;CAT6 -->
<g id="edge15" class="edge">
<title>ETH&#45;A:e&#45;&#45;CAT6:w</title>
<path fill="none" stroke="#000000" stroke-width="2" d="M118,-40.5C179.4,-42.21 194.04,-21.21 262,-19.5"/>
<path fill="none" stroke="#895956" stroke-width="2" d="M118,-42.5C181.04,-43.36 195.68,-22.36 262,-21.5"/>
<path fill="none" stroke="#895956" stroke-width="2" d="M118,-44.5C182.68,-44.5 197.32,-23.5 262,-23.5"/>
<path fill="none" stroke="#895956" stroke-width="2" d="M118,-46.5C184.32,-45.64 198.96,-24.64 262,-25.5"/>
<path fill="none" stroke="#000000" stroke-width="2" d="M118,-48.5C185.96,-46.79 200.6,-25.79 262,-27.5"/>
</g>
<!-- ETH&#45;B -->
<g id="node2" class="node">
<title>ETH&#45;B</title>
<polygon fill="white" stroke="transparent" points="686,-277.5 568,-277.5 568,-47.5 686,-47.5 686,-277.5"/>
<polygon fill="none" stroke="black" points="568,-254.5 568,-277.5 686,-277.5 686,-254.5 568,-254.5"/>
<text text-anchor="start" x="606.5" y="-262.3" font-family="arial" font-size="14.00">ETH&#45;B</text>
<polygon fill="none" stroke="black" points="568,-231.5 568,-254.5 608,-254.5 608,-231.5 568,-231.5"/>
<text text-anchor="start" x="572" y="-239.3" font-family="arial" font-size="14.00">RJ45</text>
<polygon fill="none" stroke="black" points="608,-231.5 608,-254.5 647,-254.5 647,-231.5 608,-231.5"/>
<text text-anchor="start" x="612" y="-239.3" font-family="arial" font-size="14.00">male</text>
<polygon fill="none" stroke="black" points="647,-231.5 647,-254.5 686,-254.5 686,-231.5 647,-231.5"/>
<text text-anchor="start" x="651" y="-239.3" font-family="arial" font-size="14.00">8&#45;pin</text>
<polygon fill="none" stroke="black" points="568,-208.5 568,-231.5 617,-231.5 617,-208.5 568,-208.5"/>
<text text-anchor="start" x="588.5" y="-216.3" font-family="arial" font-size="14.00">1</text>
<polygon fill="none" stroke="black" points="617,-208.5 617,-231.5 686,-231.5 686,-208.5 617,-208.5"/>
<text text-anchor="start" x="637.5" y="-216.3" font-family="arial" font-size="14.00">DB+</text>
<polygon fill="none" stroke="black" points="568,-185.5 568,-208.5 617,-208.5 617,-185.5 568,-185.5"/>
<text text-anchor="start" x="588.5" y="-193.3" font-family="arial" font-size="14.00">2</text>
<polygon fill="none" stroke="black" points="617,-185.5 617,-208.5 686,-208.5 686,-185.5 617,-185.5"/>
<text text-anchor="start" x="639.5" y="-193.3" font-family="arial" font-size="14.00">DB&#45;</text>
<polygon fill="none" stroke="black" points="568,-162.5 568,-185.5 617,-185.5 617,-162.5 568,-162.5"/>
<text text-anchor="start" x="588.5" y="-170.3" font-family="arial" font-size="14.00">3</text>
<polygon fill="none" stroke="black" points="617,-162.5 617,-185.5 686,-185.5 686,-162.5 617,-162.5"/>
<text text-anchor="start" x="637.5" y="-170.3" font-family="arial" font-size="14.00">DA+</text>
<polygon fill="none" stroke="black" points="568,-139.5 568,-162.5 617,-162.5 617,-139.5 568,-139.5"/>
<text text-anchor="start" x="588.5" y="-147.3" font-family="arial" font-size="14.00">4</text>
<polygon fill="none" stroke="black" points="617,-139.5 617,-162.5 686,-162.5 686,-139.5 617,-139.5"/>
<text text-anchor="start" x="637.5" y="-147.3" font-family="arial" font-size="14.00">DD+</text>
<polygon fill="none" stroke="black" points="568,-116.5 568,-139.5 617,-139.5 617,-116.5 568,-116.5"/>
<text text-anchor="start" x="588.5" y="-124.3" font-family="arial" font-size="14.00">5</text>
<polygon fill="none" stroke="black" points="617,-116.5 617,-139.5 686,-139.5 686,-116.5 617,-116.5"/>
<text text-anchor="start" x="639" y="-124.3" font-family="arial" font-size="14.00">DD&#45;</text>
<polygon fill="none" stroke="black" points="568,-93.5 568,-116.5 617,-116.5 617,-93.5 568,-93.5"/>
<text text-anchor="start" x="588.5" y="-101.3" font-family="arial" font-size="14.00">6</text>
<polygon fill="none" stroke="black" points="617,-93.5 617,-116.5 686,-116.5 686,-93.5 617,-93.5"/>
<text text-anchor="start" x="639.5" y="-101.3" font-family="arial" font-size="14.00">DA&#45;</text>
<polygon fill="none" stroke="black" points="568,-70.5 568,-93.5 617,-93.5 617,-70.5 568,-70.5"/>
<text text-anchor="start" x="588.5" y="-78.3" font-family="arial" font-size="14.00">7</text>
<polygon fill="none" stroke="black" points="617,-70.5 617,-93.5 686,-93.5 686,-70.5 617,-70.5"/>
<text text-anchor="start" x="637.5" y="-78.3" font-family="arial" font-size="14.00">DC+</text>
<polygon fill="none" stroke="black" points="568,-47.5 568,-70.5 617,-70.5 617,-47.5 568,-47.5"/>
<text text-anchor="start" x="588.5" y="-55.3" font-family="arial" font-size="14.00">8</text>
<polygon fill="none" stroke="black" points="617,-47.5 617,-70.5 686,-70.5 686,-47.5 617,-47.5"/>
<text text-anchor="start" x="639" y="-55.3" font-family="arial" font-size="14.00">DC&#45;</text>
</g>
<!-- CAT6&#45;&#45;ETH&#45;B -->
<g id="edge2" class="edge">
<title>CAT6:e&#45;&#45;ETH&#45;B:w</title>
<path fill="none" stroke="#000000" stroke-width="2" d="M424,-222.5C488.09,-225.9 496,-173.9 568,-170.5"/>
<path fill="none" stroke="#ffffff" stroke-width="2" d="M424,-224.5C490.07,-226.2 497.98,-174.2 568,-172.5"/>
<path fill="none" stroke="#00ff00" stroke-width="2" d="M424,-226.5C492.05,-226.5 499.95,-174.5 568,-174.5"/>
<path fill="none" stroke="#ffffff" stroke-width="2" d="M424,-228.5C494.02,-226.8 501.93,-174.8 568,-176.5"/>
<path fill="none" stroke="#000000" stroke-width="2" d="M424,-230.5C496,-227.1 503.91,-175.1 568,-178.5"/>
</g>
<!-- CAT6&#45;&#45;ETH&#45;B -->
<g id="edge4" class="edge">
<title>CAT6:e&#45;&#45;ETH&#45;B:w</title>
<path fill="none" stroke="#000000" stroke-width="2" d="M424,-193.5C496.2,-197.86 487.83,-104.86 568,-100.5"/>
<path fill="none" stroke="#00ff00" stroke-width="2" d="M424,-195.5C498.19,-197.68 489.82,-104.68 568,-102.5"/>
<path fill="none" stroke="#00ff00" stroke-width="2" d="M424,-197.5C500.19,-197.5 491.81,-104.5 568,-104.5"/>
<path fill="none" stroke="#00ff00" stroke-width="2" d="M424,-199.5C502.18,-197.32 493.81,-104.32 568,-106.5"/>
<path fill="none" stroke="#000000" stroke-width="2" d="M424,-201.5C504.17,-197.14 495.8,-104.14 568,-108.5"/>
</g>
<!-- CAT6&#45;&#45;ETH&#45;B -->
<g id="edge6" class="edge">
<title>CAT6:e&#45;&#45;ETH&#45;B:w</title>
<path fill="none" stroke="#000000" stroke-width="2" d="M424,-164.5C496,-167.9 503.91,-219.9 568,-216.5"/>
<path fill="none" stroke="#ffffff" stroke-width="2" d="M424,-166.5C494.02,-168.2 501.93,-220.2 568,-218.5"/>
<path fill="none" stroke="#ff8000" stroke-width="2" d="M424,-168.5C492.05,-168.5 499.95,-220.5 568,-220.5"/>
<path fill="none" stroke="#ffffff" stroke-width="2" d="M424,-170.5C490.07,-168.8 497.98,-220.8 568,-222.5"/>
<path fill="none" stroke="#000000" stroke-width="2" d="M424,-172.5C488.09,-169.1 496,-221.1 568,-224.5"/>
</g>
<!-- CAT6&#45;&#45;ETH&#45;B -->
<g id="edge8" class="edge">
<title>CAT6:e&#45;&#45;ETH&#45;B:w</title>
<path fill="none" stroke="#000000" stroke-width="2" d="M424,-135.5C489.02,-139.09 495.02,-81.09 568,-77.5"/>
<path fill="none" stroke="#0066ff" stroke-width="2" d="M424,-137.5C491.01,-139.29 497.01,-81.29 568,-79.5"/>
<path fill="none" stroke="#0066ff" stroke-width="2" d="M424,-139.5C493,-139.5 499,-81.5 568,-81.5"/>
<path fill="none" stroke="#0066ff" stroke-width="2" d="M424,-141.5C494.99,-139.71 500.99,-81.71 568,-83.5"/>
<path fill="none" stroke="#000000" stroke-width="2" d="M424,-143.5C496.98,-139.91 502.98,-81.91 568,-85.5"/>
</g>
<!-- CAT6&#45;&#45;ETH&#45;B -->
<g id="edge10" class="edge">
<title>CAT6:e&#45;&#45;ETH&#45;B:w</title>
<path fill="none" stroke="#000000" stroke-width="2" d="M424,-106.5C488.09,-109.9 496,-57.9 568,-54.5"/>
<path fill="none" stroke="#ffffff" stroke-width="2" d="M424,-108.5C490.07,-110.2 497.98,-58.2 568,-56.5"/>
<path fill="none" stroke="#0066ff" stroke-width="2" d="M424,-110.5C492.05,-110.5 499.95,-58.5 568,-58.5"/>
<path fill="none" stroke="#ffffff" stroke-width="2" d="M424,-112.5C494.02,-110.8 501.93,-58.8 568,-60.5"/>
<path fill="none" stroke="#000000" stroke-width="2" d="M424,-114.5C496,-111.1 503.91,-59.1 568,-62.5"/>
</g>
<!-- CAT6&#45;&#45;ETH&#45;B -->
<g id="edge12" class="edge">
<title>CAT6:e&#45;&#45;ETH&#45;B:w</title>
<path fill="none" stroke="#000000" stroke-width="2" d="M424,-77.5C510.12,-82.19 489.76,-198.19 568,-193.5"/>
<path fill="none" stroke="#ff8000" stroke-width="2" d="M424,-79.5C508.15,-81.85 487.79,-197.85 568,-195.5"/>
<path fill="none" stroke="#ff8000" stroke-width="2" d="M424,-81.5C506.18,-81.5 485.82,-197.5 568,-197.5"/>
<path fill="none" stroke="#ff8000" stroke-width="2" d="M424,-83.5C504.21,-81.15 483.85,-197.15 568,-199.5"/>
<path fill="none" stroke="#000000" stroke-width="2" d="M424,-85.5C502.24,-80.81 481.88,-196.81 568,-201.5"/>
</g>
<!-- CAT6&#45;&#45;ETH&#45;B -->
<g id="edge14" class="edge">
<title>CAT6:e&#45;&#45;ETH&#45;B:w</title>
<path fill="none" stroke="#000000" stroke-width="2" d="M424,-48.5C505.39,-52.94 494.56,-150.94 568,-146.5"/>
<path fill="none" stroke="#ffffff" stroke-width="2" d="M424,-50.5C503.4,-52.72 492.57,-150.72 568,-148.5"/>
<path fill="none" stroke="#895956" stroke-width="2" d="M424,-52.5C501.42,-52.5 490.58,-150.5 568,-150.5"/>
<path fill="none" stroke="#ffffff" stroke-width="2" d="M424,-54.5C499.43,-52.28 488.6,-150.28 568,-152.5"/>
<path fill="none" stroke="#000000" stroke-width="2" d="M424,-56.5C497.44,-52.06 486.61,-150.06 568,-154.5"/>
</g>
<!-- CAT6&#45;&#45;ETH&#45;B -->
<g id="edge16" class="edge">
<title>CAT6:e&#45;&#45;ETH&#45;B:w</title>
<path fill="none" stroke="#000000" stroke-width="2" d="M424,-19.5C506.91,-24.03 493.02,-128.03 568,-123.5"/>
<path fill="none" stroke="#895956" stroke-width="2" d="M424,-21.5C504.93,-23.76 491.04,-127.76 568,-125.5"/>
<path fill="none" stroke="#895956" stroke-width="2" d="M424,-23.5C502.95,-23.5 489.05,-127.5 568,-127.5"/>
<path fill="none" stroke="#895956" stroke-width="2" d="M424,-25.5C500.96,-23.24 487.07,-127.24 568,-129.5"/>
<path fill="none" stroke="#000000" stroke-width="2" d="M424,-27.5C498.98,-22.97 485.09,-126.97 568,-131.5"/>
</g>
</g>
</svg>
